<?xml version="1.0" encoding="UTF-8"?>
<svg version="1.1" xmlns="http://www.w3.org/2000/svg" width="175" height="219">
<path d="M0 0 C1.98 0 3.96 0 6 0 C6.29390625 0.89138672 6.29390625 0.89138672 6.59375 1.80078125 C13.30001623 20.38754497 28.93923939 34.40474616 45.5 44.375 C52.47265143 48.69865285 58.19211719 54.25687536 64 60 C65.35158203 61.31484375 65.35158203 61.31484375 66.73046875 62.65625 C73.78796486 69.92164135 78.43680404 78.05055341 83 87 C83.43183594 87.82371094 83.86367187 88.64742188 84.30859375 89.49609375 C90.0512281 101.31653566 91.73620598 113.7551106 91.5625 126.75 C91.55790771 127.44455292 91.55331543 128.13910583 91.54858398 128.85470581 C91.35802343 149.89385718 85.92273157 168.77304013 72 185 C71.27167969 185.87140625 70.54335937 186.7428125 69.79296875 187.640625 C54.74877362 204.98290978 32.86693325 216.01803395 10 218 C-10.82686953 219.11200193 -30.06727455 214.3857168 -47 202 C-48.12728516 201.20335937 -48.12728516 201.20335937 -49.27734375 200.390625 C-58.80448023 193.35829227 -66.53409319 185.38087292 -72.8125 175.375 C-73.2441748 174.70235107 -73.67584961 174.02970215 -74.12060547 173.33666992 C-82.51503597 159.32932872 -85.03608794 145.70564865 -84.89208984 129.59008789 C-84.87506435 126.69842879 -84.93280582 123.81471296 -84.99609375 120.92382812 C-85.17687283 96.34832322 -73.82266397 76.34098117 -57 59 C-50.36431844 52.6514488 -43.03298796 47.15648851 -35.5625 41.8359375 C-31.6139371 39.00693664 -27.80141715 36.02219946 -24 33 C-23.43023437 32.57847656 -22.86046875 32.15695313 -22.2734375 31.72265625 C-12.26088999 23.91666542 -3.9912758 11.97382741 0 0 Z " fill="#EEF5F7" transform="translate(84,0)"/>
<path d="M0 0 C15.61966911 7.48247622 28.07856902 25.04165826 33.95703125 40.9375 C34.36695313 42.02417969 34.36695313 42.02417969 34.78515625 43.1328125 C35.58548318 45.38471279 36.29168832 47.64226374 36.95703125 49.9375 C37.16457031 50.63746094 37.37210938 51.33742187 37.5859375 52.05859375 C42.49996548 71.88652482 37.91802459 93.01551332 28.95703125 110.9375 C28.29703125 110.9375 27.63703125 110.9375 26.95703125 110.9375 C26.91578125 111.5975 26.87453125 112.2575 26.83203125 112.9375 C24.40200244 121.26902733 16.39473176 128.48776343 9.95703125 133.9375 C7.65234375 134.72265625 7.65234375 134.72265625 5.95703125 134.9375 C5.95703125 135.5975 5.95703125 136.2575 5.95703125 136.9375 C4.56484375 137.3396875 4.56484375 137.3396875 3.14453125 137.75 C0.0347287 138.61448216 0.0347287 138.61448216 -1.25 140.3515625 C-4.03333644 142.81351151 -7.40885216 143.52052384 -10.91796875 144.5 C-11.67956299 144.71615967 -12.44115723 144.93231934 -13.22583008 145.1550293 C-30.85011123 150.01237652 -46.57546008 149.87123663 -64.04296875 144.9375 C-65.72326172 144.46957031 -65.72326172 144.46957031 -67.4375 143.9921875 C-74.12643156 141.94858582 -80.47364171 139.250032 -86.04296875 134.9375 C-86.04296875 134.2775 -86.04296875 133.6175 -86.04296875 132.9375 C-86.605 132.69644531 -87.16703125 132.45539063 -87.74609375 132.20703125 C-97.23251502 126.96368616 -102.8692432 117.05424964 -108.04296875 107.9375 C-108.55730469 107.13828125 -109.07164063 106.3390625 -109.6015625 105.515625 C-111.39499898 102.30785243 -112.54325196 98.98176216 -113.66796875 95.5 C-113.88453125 94.85740234 -114.10109375 94.21480469 -114.32421875 93.55273438 C-120.76313403 73.97763701 -118.22059849 52.18602551 -109.23608398 33.93798828 C-104.09349579 24.0273631 -97.30544015 15.43136941 -89.04296875 7.9375 C-88.31980469 7.27105469 -87.59664062 6.60460938 -86.8515625 5.91796875 C-83.41846386 2.97282322 -81.15361716 1.07885525 -76.60546875 0.5 C-67.56282232 4.14878716 -60.17411876 11.52404101 -55.91015625 20.2578125 C-53.40502147 27.99890465 -54.19271114 37.16819185 -57.58203125 44.51171875 C-59.91986251 48.39351879 -62.78117089 51.76653814 -65.72265625 55.203125 C-72.69937407 63.42484634 -77.57950946 70.64016812 -77.296875 81.73828125 C-76.62645253 87.54517123 -73.42823641 92.32122591 -70.04296875 96.9375 C-69.33527344 97.49566406 -68.62757812 98.05382812 -67.8984375 98.62890625 C-65.66019585 101.41375007 -65.74172901 103.12886737 -66.046875 106.62109375 C-66.12808594 107.30300781 -66.20929688 107.98492187 -66.29296875 108.6875 C-66.39158203 109.73357422 -66.39158203 109.73357422 -66.4921875 110.80078125 C-66.65656202 112.51497263 -66.84719529 114.22661023 -67.04296875 115.9375 C-66.38296875 115.9375 -65.72296875 115.9375 -65.04296875 115.9375 C-64.77484375 116.50597656 -64.50671875 117.07445312 -64.23046875 117.66015625 C-61.44671133 123.14525723 -58.46416402 126.73756359 -53.6171875 130.52734375 C-53.09769531 130.99269531 -52.57820313 131.45804688 -52.04296875 131.9375 C-52.04296875 132.5975 -52.04296875 133.2575 -52.04296875 133.9375 C-49.31478735 134.30145805 -46.5859297 134.65394812 -43.85546875 135 C-43.08654297 135.10376953 -42.31761719 135.20753906 -41.52539062 135.31445312 C-37.45016681 135.82166982 -34.06098296 136.08895497 -30.04296875 134.9375 C-29.71296875 133.9475 -29.38296875 132.9575 -29.04296875 131.9375 C-27.1171875 130.578125 -27.1171875 130.578125 -24.73046875 129.1875 C-20.14341649 126.26052379 -18.31372751 123.84233892 -16.04296875 118.9375 C-15.68460937 118.34839844 -15.32625 117.75929688 -14.95703125 117.15234375 C-13.69999133 114.10643932 -13.87325828 111.40894718 -13.85546875 108.125 C-13.58391707 103.2571847 -13.4145673 100.4485272 -9.73046875 97.125 C-9.10398437 96.60421875 -8.4775 96.0834375 -7.83203125 95.546875 C-3.63171826 91.76842751 -2.3295137 87.06540772 -1.59375 81.6015625 C-0.99247069 69.2820176 -6.39790148 62.9767955 -13.66796875 53.8125 C-21.82719123 43.49420496 -24.3930329 36.28660364 -23.04296875 22.9375 C-22.19171369 19.79550801 -20.99452989 17.52530678 -19.04296875 14.9375 C-18.64207031 14.36128906 -18.24117188 13.78507812 -17.828125 13.19140625 C-14.08482521 8.31969145 -6.44069934 -0.1970386 0 0 Z " fill="#035896" transform="translate(126.04296875,57.0625)"/>
<path d="M0 0 C2.49389537 1.24694768 2.64573541 2.11618835 3.75 4.625 C9.58951671 16.53676777 21.01653733 23.24094605 32 30 C32 30.33 32 30.66 32 31 C31.443125 30.99097656 30.88625 30.98195313 30.3125 30.97265625 C24.39083182 31.20272106 21.02793935 32.71843383 16.78515625 36.8515625 C4.88110771 51.17809794 4.45473682 72.60871168 4.25 90.375 C4.24087585 91.1459198 4.23175171 91.9168396 4.22235107 92.71112061 C4.16744152 105.67550179 6.22777596 114.23420066 15 124 C16.21765848 125.75023277 17.41052754 127.51835218 18.5625 129.3125 C19.24505859 130.29669922 19.24505859 130.29669922 19.94140625 131.30078125 C23.49362099 137.00267577 22.78184741 144.57722045 22 151 C19.07818528 157.81467766 14.67217726 161.99097888 8 165 C7.34 165.33 6.68 165.66 6 166 C3.58750308 166.17603147 1.16849105 166.26744968 -1.25 166.3125 C-2.55453125 166.34988281 -3.8590625 166.38726562 -5.203125 166.42578125 C-11.8358882 165.68198373 -15.66187621 161.7604857 -19.67578125 156.77734375 C-23.31220048 151.89660407 -24.68567782 147.80858178 -24.46875 141.76171875 C-22.89959732 132.51679424 -16.53024325 124.55502092 -11.1484375 117.10546875 C-6.79301615 110.80990516 -4.49291278 107.09498824 -4.50390625 99.29296875 C-4.50113678 98.57418549 -4.49836731 97.85540222 -4.49551392 97.11483765 C-4.49485978 94.80494757 -4.52616234 92.49708336 -4.5625 90.1875 C-4.56931793 89.40132294 -4.57613586 88.61514587 -4.5831604 87.80514526 C-4.74940627 69.39464953 -5.1338688 49.88578796 -18.25390625 35.5234375 C-21.64713575 32.56290169 -24.2709557 31.7432634 -28.75 31.875 C-29.94882812 31.90207031 -29.94882812 31.90207031 -31.171875 31.9296875 C-31.77515625 31.95289062 -32.3784375 31.97609375 -33 32 C-29.75240282 28.50258765 -26.09083085 25.82985795 -22.1875 23.125 C-19.78731883 21.42273948 -17.39350912 19.71162464 -15 18 C-13.91525391 17.2265625 -13.91525391 17.2265625 -12.80859375 16.4375 C-7.20340885 12.06779669 -3.71392932 5.96158006 0 0 Z " fill="#07A9E7" transform="translate(87,21)"/>
<path d="M0 0 C2.49389537 1.24694768 2.64573541 2.11618835 3.75 4.625 C9.58951671 16.53676777 21.01653733 23.24094605 32 30 C32 30.33 32 30.66 32 31 C31.443125 30.99097656 30.88625 30.98195313 30.3125 30.97265625 C24.38296896 31.20302654 21.00735821 32.71590192 16.77734375 36.87890625 C9.92181035 45.06034501 7.74864398 55.91773997 5 66 C4.67 64.68 4.34 63.36 4 62 C3.01 62.33 2.02 62.66 1 63 C0.67 62.01 0.34 61.02 0 60 C-0.99 59.67 -1.98 59.34 -3 59 C-2.67 60.32 -2.34 61.64 -2 63 C-2.66 63 -3.32 63 -4 63 C-4 64.98 -4 66.96 -4 69 C-2.515 69.495 -2.515 69.495 -1 70 C-1.165 70.53625 -1.33 71.0725 -1.5 71.625 C-2.09660212 74.45886009 -2.0656368 77.1119806 -2 80 C-2.99 80.495 -2.99 80.495 -4 81 C-4.06993164 80.36610352 -4.13986328 79.73220703 -4.21191406 79.07910156 C-6.27374114 54.82214782 -6.27374114 54.82214782 -19.1875 35.0625 C-22.75627704 32.44539684 -24.28966286 31.87556661 -28.625 31.9375 C-29.44226562 31.94652344 -30.25953125 31.95554687 -31.1015625 31.96484375 C-31.72804687 31.97644531 -32.35453125 31.98804687 -33 32 C-29.75240282 28.50258765 -26.09083085 25.82985795 -22.1875 23.125 C-19.78731883 21.42273948 -17.39350912 19.71162464 -15 18 C-13.91525391 17.2265625 -13.91525391 17.2265625 -12.80859375 16.4375 C-7.20340885 12.06779669 -3.71392932 5.96158006 0 0 Z " fill="#083165" transform="translate(87,21)"/>
<path d="M0 0 C1.98 0 3.96 0 6 0 C6 1.65 6 3.3 6 5 C5.01 4.505 5.01 4.505 4 4 C4 3.34 4 2.68 4 2 C3.34 2 2.68 2 2 2 C1.95488281 2.98742187 1.90976563 3.97484375 1.86328125 4.9921875 C1.14460527 9.99397092 -1.72714517 13.27103847 -4.8125 17.125 C-5.34681641 17.81464844 -5.88113281 18.50429688 -6.43164062 19.21484375 C-7.93983772 21.15527938 -9.46760108 23.07866202 -11 25 C-11.71671875 25.92167969 -12.4334375 26.84335937 -13.171875 27.79296875 C-20.83929058 37.04957089 -31.93588022 44.12862871 -41.6875 51.0625 C-52.9653413 59.23034152 -64.44991348 68.96936209 -70 82 C-70.66 82 -71.32 82 -72 82 C-72.268125 82.84304687 -72.53625 83.68609375 -72.8125 84.5546875 C-74.0543339 88.15763981 -75.51066892 91.6176253 -77 95.125 C-84.83803544 114.54785002 -84.55735793 138.73458156 -77.125 158.3125 C-76.43669046 159.88392367 -75.72834196 161.44672593 -75 163 C-74.63003906 163.81855469 -74.26007813 164.63710937 -73.87890625 165.48046875 C-64.32026887 185.69463632 -47.80208617 200.35632537 -27.40625 209.14453125 C-24.3061648 210.24667193 -21.26434508 210.66690356 -18 211 C-17.11441406 211.48533203 -17.11441406 211.48533203 -16.2109375 211.98046875 C-11.29963641 214.24522067 -5.32642793 213.76889466 0 214 C1.0828125 214.05414063 2.165625 214.10828125 3.28125 214.1640625 C25.9137828 214.78029483 47.20256147 205.11173314 63.4921875 189.72216797 C74.53726344 178.7631665 82.02372895 165.0330285 85.359375 149.8515625 C86 147 86 147 87.0390625 144.05078125 C88.77430043 138.0916089 88.47587292 131.71709876 88.625 125.5625 C88.66367188 124.25861328 88.70234375 122.95472656 88.7421875 121.61132812 C88.83606701 118.40769001 88.92175154 115.20405168 89 112 C94.70517964 120.55776946 91.92272793 138.72916695 90.16015625 148.55078125 C87.18002377 161.9027868 80.91906425 174.60482023 72 185 C71.27167969 185.87140625 70.54335937 186.7428125 69.79296875 187.640625 C54.74877362 204.98290978 32.86693325 216.01803395 10 218 C-10.82686953 219.11200193 -30.06727455 214.3857168 -47 202 C-48.12728516 201.20335937 -48.12728516 201.20335937 -49.27734375 200.390625 C-58.80448023 193.35829227 -66.53409319 185.38087292 -72.8125 175.375 C-73.2441748 174.70235107 -73.67584961 174.02970215 -74.12060547 173.33666992 C-82.51503597 159.32932872 -85.03608794 145.70564865 -84.89208984 129.59008789 C-84.87506435 126.69842879 -84.93280582 123.81471296 -84.99609375 120.92382812 C-85.17687283 96.34832322 -73.82266397 76.34098117 -57 59 C-50.36431844 52.6514488 -43.03298796 47.15648851 -35.5625 41.8359375 C-31.6139371 39.00693664 -27.80141715 36.02219946 -24 33 C-23.43023437 32.57847656 -22.86046875 32.15695313 -22.2734375 31.72265625 C-12.26088999 23.91666542 -3.9912758 11.97382741 0 0 Z " fill="#C7DAE0" transform="translate(84,0)"/>
<path d="M0 0 C0.75035969 5.03812932 0.02449138 7.54511272 -3 11.6875 C-7.71677351 17.17168507 -11.37213069 19.6294112 -18.6328125 20.37109375 C-25.82253294 20.60324715 -30.21538166 20.61451035 -36 16 C-37.828125 14.21875 -37.828125 14.21875 -39.25 12.5 C-39.72953125 11.9328125 -40.2090625 11.365625 -40.703125 10.78125 C-42.07834859 8.89238869 -43.15193892 7.18072849 -44 5 C-43.67 4.01 -43.34 3.02 -43 2 C-42.608125 2.928125 -42.21625 3.85625 -41.8125 4.8125 C-39.75620127 8.42874949 -38.86059654 9.52147367 -35 11 C-25.06322143 12.59129906 -18.11812664 8.23604492 -10.25 2.6875 C-6.71565237 0.23291754 -4.40488715 -0.67767495 0 0 Z " fill="#063068" transform="translate(108,167)"/>
<path d="M0 0 C3.27181 2.97437273 5.7719006 6.01945077 8.25 9.6875 C16.65132104 21.8567955 26.88924349 30.78280986 39.5 38.375 C46.47265143 42.69865285 52.19211719 48.25687536 58 54 C58.90105469 54.8765625 59.80210937 55.753125 60.73046875 56.65625 C71.49781606 67.74077498 83.06076406 86.00525062 83.125 102 C83.08375 102.99 83.0425 103.98 83 105 C81 104 81 104 79.88671875 100.82421875 C79.48183788 99.44681334 79.0824508 98.06778549 78.6875 96.6875 C70.66119624 70.05773089 53.87256559 51.75431889 30.85009766 36.6784668 C21.05933394 30.22876792 12.92025526 22.68915883 6.1875 13.0625 C4.34441735 9.97725546 4.34441735 9.97725546 2 9 C1.3671875 6.93359375 1.3671875 6.93359375 0.875 4.4375 C0.70742187 3.61121094 0.53984375 2.78492188 0.3671875 1.93359375 C0.24601562 1.29550781 0.12484375 0.65742187 0 0 Z " fill="#C8DAE0" transform="translate(90,6)"/>
<path d="M0 0 C3.28885956 4.93328933 2.3817068 10.51298519 2.375 16.3125 C2.37483887 17.57876221 2.37467773 18.84502441 2.37451172 20.1496582 C2.26864876 28.81203414 1.89709218 37.07780897 -2 45 C-2.99 45.495 -2.99 45.495 -4 46 C-3.88399745 44.31185763 -3.75668975 42.62449113 -3.625 40.9375 C-3.55539063 39.99777344 -3.48578125 39.05804688 -3.4140625 38.08984375 C-3 35 -3 35 -2 32.03125 C-0.20440147 26.08976314 -0.52404866 19.71386245 -0.375 13.5625 C-0.33632812 12.25861328 -0.29765625 10.95472656 -0.2578125 9.61132812 C-0.16393299 6.40769001 -0.07824846 3.20405168 0 0 Z " fill="#BFD4DB" transform="translate(173,112)"/>
<path d="M0 0 C0.66 0.33 1.32 0.66 2 1 C-7.29404166 9.766542 -27.22553418 8.67509377 -39.08203125 8.33203125 C-45.34184102 8.00482203 -52.38253663 7.61746337 -57 3 C-52.35456454 3.53601178 -47.78717622 4.21692719 -43.1875 5.0625 C-28.34217698 7.50586987 -14.07506043 4.93861769 0 0 Z " fill="#34D0EB" transform="translate(119,199)"/>
<path d="M0 0 C0.33 1.32 0.66 2.64 1 4 C0.50628906 4.40992188 0.01257813 4.81984375 -0.49609375 5.2421875 C-1.13675781 5.78101563 -1.77742188 6.31984375 -2.4375 6.875 C-3.07558594 7.40867188 -3.71367188 7.94234375 -4.37109375 8.4921875 C-6.10805004 9.9222757 -6.10805004 9.9222757 -7 12 C-6.34 12.33 -5.68 12.66 -5 13 C-5.2784375 14.175625 -5.2784375 14.175625 -5.5625 15.375 C-6.25962266 17.97089775 -6.25962266 17.97089775 -5 20 C-5.69242004 21.74753629 -6.39565974 23.49261728 -7.18359375 25.19921875 C-8.08621192 27.10739335 -8.08621192 27.10739335 -8.875 29.625 C-10.35102463 32.741052 -12.48319492 34.68189006 -15 37 C-15.66 36.67 -16.32 36.34 -17 36 C-15.8553125 34.7315625 -15.8553125 34.7315625 -14.6875 33.4375 C-9.97018435 27.65110432 -8.93773169 23.38411311 -8.75 16 C-8.51545142 10.98918949 -8.1534539 8.2846424 -4.5 4.75 C-3.33863792 3.82662195 -2.17302335 2.90851808 -1 2 C-0.67 1.34 -0.34 0.68 0 0 Z " fill="#1C8FC9" transform="translate(121,149)"/>
<path d="M0 0 C3.37498158 -0.02922646 6.74993021 -0.04687468 10.125 -0.0625 C11.55199219 -0.07506836 11.55199219 -0.07506836 13.0078125 -0.08789062 C26.32662829 -0.13413651 26.32662829 -0.13413651 31 4 C6.98540146 4.65693431 6.98540146 4.65693431 0 0 Z " fill="#D1DFE4" transform="translate(63,214)"/>
<path d="M0 0 C3.8461125 -0.21977786 6.55837447 0.23267878 10 2 C12 5 12 5 12 8 C10.35 8 8.7 8 7 8 C6.67 6.68 6.34 5.36 6 4 C5.071875 4.309375 5.071875 4.309375 4.125 4.625 C3.42375 4.74875 2.7225 4.8725 2 5 C1.34 4.34 0.68 3.68 0 3 C0 2.01 0 1.02 0 0 Z " fill="#6BDCF0" transform="translate(94,152)"/>
<path d="M0 0 C0 3 0 3 -2.0625 5.25 C-2.51625 5.6728125 -2.97 6.095625 -3.4375 6.53125 C-4.57527212 7.6007558 -5.6750034 8.7111643 -6.75 9.84375 C-7.348125 10.4728125 -7.94625 11.101875 -8.5625 11.75 C-9.12066406 12.34296875 -9.67882813 12.9359375 -10.25390625 13.546875 C-12.17433878 15.14508731 -13.55989329 15.59420545 -16 16 C-13.59978585 11.26022693 -10.35681128 8.46939507 -6.3125 5.1875 C-5.70599609 4.68541016 -5.09949219 4.18332031 -4.47460938 3.66601562 C-2.98853616 2.43737242 -1.495006 1.2177581 0 0 Z " fill="#C5D7DC" transform="translate(72,23)"/>
<path d="M0 0 C0.66 0.33 1.32 0.66 2 1 C1.21625 1.5775 0.4325 2.155 -0.375 2.75 C-3.03866356 4.73012524 -3.03866356 4.73012524 -4 7.0625 C-5 9 -5 9 -7.5625 10.5 C-10.16513821 11.75667017 -10.16513821 11.75667017 -10.8125 14.1875 C-10.874375 14.785625 -10.93625 15.38375 -11 16 C-12.32 16.33 -13.64 16.66 -15 17 C-12.62079389 9.14861983 -6.60192052 4.35726754 0 0 Z " fill="#254370" transform="translate(120,60)"/>
<path d="M0 0 C-1.57297914 1.86562642 -2.45510217 2.90238443 -4.90112305 3.34057617 C-5.59761963 3.32486572 -6.29411621 3.30915527 -7.01171875 3.29296875 C-7.76904297 3.28330078 -8.52636719 3.27363281 -9.30664062 3.26367188 C-10.09232422 3.23853516 -10.87800781 3.21339844 -11.6875 3.1875 C-12.88342773 3.16719727 -12.88342773 3.16719727 -14.10351562 3.14648438 C-16.06929967 3.11117089 -18.03473582 3.05736447 -20 3 C-13.67871057 -0.37318265 -6.99735345 -0.14280313 0 0 Z " fill="#BED2D9" transform="translate(106,214)"/>
<path d="M0 0 C7.26 0.33 14.52 0.66 22 1 C16.58916542 3.70541729 15.01909975 4.04472835 9 3.1875 C7.1128125 2.93033203 7.1128125 2.93033203 5.1875 2.66796875 C2 2 2 2 0 0 Z " fill="#49D1EC" transform="translate(74,190)"/>
<path d="M0 0 C3.3 1.65 6.6 3.3 10 5 C10 5.33 10 5.66 10 6 C12.31 6.33 14.62 6.66 17 7 C17 7.33 17 7.66 17 8 C11.90363007 8.36258758 8.09957107 8.54014017 3.4375 6.25 C1 4 1 4 0 0 Z " fill="#0074C1" transform="translate(66,171)"/>
<path d="M0 0 C1.52453435 2.94017338 2.95157395 5.85472185 4 9 C3 12 3 12 1 13 C0.46809459 11.56656 -0.05015258 10.12804633 -0.5625 8.6875 C-0.85253906 7.88699219 -1.14257812 7.08648437 -1.44140625 6.26171875 C-2 4 -2 4 -1 1 C-0.67 0.67 -0.34 0.34 0 0 Z " fill="#CFDFE4" transform="translate(2,145)"/>
<path d="M0 0 C0.33 0.66 0.66 1.32 1 2 C-3.96359743 9.60813704 -3.96359743 9.60813704 -8 11 C-8.99 11.495 -8.99 11.495 -10 12 C-8.65263662 9.06559801 -7.11433035 6.74926573 -5 4.3125 C-4.484375 3.71050781 -3.96875 3.10851562 -3.4375 2.48828125 C-2 1 -2 1 0 0 Z " fill="#CEDEE3" transform="translate(78,15)"/>
<path d="M0 0 C6.93 0 13.86 0 21 0 C21 0.33 21 0.66 21 1 C19.02 1.33 17.04 1.66 15 2 C15 2.33 15 2.66 15 3 C9.5814234 3.22577402 5.22512279 2.46670113 0 1 C0 0.67 0 0.34 0 0 Z " fill="#DAE7EB" transform="translate(63,214)"/>
<path d="M0 0 C4.03052394 2.12722097 6.25509315 4.39730976 9 8 C10.64783606 9.68528688 12.31002677 11.35697047 14 13 C11 13 11 13 8.30078125 10.6640625 C7.29685338 9.65880492 6.3010225 8.64541032 5.3125 7.625 C4.80138672 7.11710938 4.29027344 6.60921875 3.76367188 6.0859375 C0 2.26699141 0 2.26699141 0 0 Z " fill="#20B9E2" transform="translate(26,176)"/>
<path d="M0 0 C0.33 0.66 0.66 1.32 1 2 C0.60167969 2.59167969 0.20335938 3.18335938 -0.20703125 3.79296875 C-3.60185031 8.85025697 -3.60185031 8.85025697 -6.75 14.0625 C-7.1625 14.701875 -7.575 15.34125 -8 16 C-8.66 16 -9.32 16 -10 16 C-8.55797524 11.84848662 -6.4989562 8.70021555 -3.875 5.1875 C-3.15054688 4.21167969 -2.42609375 3.23585937 -1.6796875 2.23046875 C-0.84824219 1.12638672 -0.84824219 1.12638672 0 0 Z " fill="#20C9F1" transform="translate(77,137)"/>
<path d="M0 0 C2.53435666 2.2037884 3.53691481 3.66578661 4 7 C4.03888349 9.33300933 4.0448635 11.66709801 4 14 C3.34 13.67 2.68 13.34 2 13 C0.66649933 8.55499776 -0.29175731 4.6681169 0 0 Z " fill="#BED4DA" transform="translate(169,97)"/>
<path d="M0 0 C0.90492187 0.38285156 1.80984375 0.76570312 2.7421875 1.16015625 C4.10730469 1.73056641 4.10730469 1.73056641 5.5 2.3125 C6.19867188 2.61285156 6.89734375 2.91320312 7.6171875 3.22265625 C7.2871875 4.21265625 6.9571875 5.20265625 6.6171875 6.22265625 C2.10916149 4.96460248 -0.8740937 3.3185846 -4.3828125 0.22265625 C-2.3828125 -0.77734375 -2.3828125 -0.77734375 0 0 Z " fill="#CBDCE2" transform="translate(47.3828125,204.77734375)"/>
<path d="M0 0 C0.92550505 2.49886364 1.04422814 3.82751024 0.375 6.4375 C-1.29370576 9.54736073 -3.41610613 11.62009775 -6 14 C-6.66 13.67 -7.32 13.34 -8 13 C-7.236875 12.154375 -6.47375 11.30875 -5.6875 10.4375 C-2.9508582 7.17996332 -1.50585211 3.96276872 0 0 Z " fill="#1EADDE" transform="translate(112,172)"/>
<path d="M0 0 C1.98 0 3.96 0 6 0 C6 1.65 6 3.3 6 5 C5.34 4.67 4.68 4.34 4 4 C4 3.34 4 2.68 4 2 C3.34 2 2.68 2 2 2 C1.67 3.65 1.34 5.3 1 7 C0.34 6.67 -0.32 6.34 -1 6 C-0.67 4.02 -0.34 2.04 0 0 Z " fill="#C0D4DB" transform="translate(84,0)"/>
<path d="M0 0 C1.27445454 0.42683632 2.54445882 0.86697202 3.8125 1.3125 C4.52019531 1.55613281 5.22789063 1.79976562 5.95703125 2.05078125 C8.16860857 3.07834012 9.38365633 4.19570939 11 6 C11.556875 6.556875 12.11375 7.11375 12.6875 7.6875 C13.120625 8.120625 13.55375 8.55375 14 9 C8.8423143 7.58163643 4.20024742 5.32608425 0 2 C0 1.34 0 0.68 0 0 Z " fill="#29C9E9" transform="translate(40,190)"/>
<path d="M0 0 C-0.66 1.98 -1.32 3.96 -2 6 C-4.64 6.33 -7.28 6.66 -10 7 C-3.24137931 0 -3.24137931 0 0 0 Z " fill="#355074" transform="translate(64,46)"/>
<path d="M0 0 C1.53445094 3.06890187 0.54984289 5.70094266 0 9 C0.99 9.33 1.98 9.66 3 10 C1.68 11.65 0.36 13.3 -1 15 C-1.02685412 12.68756208 -1.04632841 10.3750373 -1.0625 8.0625 C-1.07410156 6.77472656 -1.08570313 5.48695312 -1.09765625 4.16015625 C-1 1 -1 1 0 0 Z " fill="#04316D" transform="translate(11,112)"/>
<path d="M0 0 C0.33 0.99 0.66 1.98 1 3 C-0.21484375 4.82421875 -0.21484375 4.82421875 -1.9375 6.6875 C-2.50339844 7.31011719 -3.06929687 7.93273437 -3.65234375 8.57421875 C-4.09707031 9.04472656 -4.54179687 9.51523438 -5 10 C-5.33 9.01 -5.66 8.02 -6 7 C-4.78515625 5.17578125 -4.78515625 5.17578125 -3.0625 3.3125 C-2.49660156 2.68988281 -1.93070313 2.06726563 -1.34765625 1.42578125 C-0.90292969 0.95527344 -0.45820313 0.48476562 0 0 Z " fill="#284776" transform="translate(32,70)"/>
<path d="M0 0 C1.98 0.99 1.98 0.99 4 2 C3.835 2.53625 3.67 3.0725 3.5 3.625 C2.90339788 6.45886009 2.9343632 9.1119806 3 12 C2.01 12.495 2.01 12.495 1 13 C0.67 8.71 0.34 4.42 0 0 Z " fill="#176CA8" transform="translate(82,89)"/>
<path d="M0 0 C0 3 0 3 -2.5 5.6875 C-3.325 6.450625 -4.15 7.21375 -5 8 C-5.99 7.67 -6.98 7.34 -8 7 C-5.36 4.69 -2.72 2.38 0 0 Z " fill="#BCD1D8" transform="translate(72,23)"/>
<path d="M0 0 C1.9375 0.75 1.9375 0.75 4 2 C4.75 4.125 4.75 4.125 5 6 C3.68 5.67 2.36 5.34 1 5 C0.67 3.35 0.34 1.7 0 0 Z " fill="#B4ECF5" transform="translate(68,160)"/>
<path d="M0 0 C2.0625 0.4375 2.0625 0.4375 4 1 C3.01 1.495 3.01 1.495 2 2 C1.67 2.825 1.34 3.65 1 4.5 C0 7 0 7 -2 8 C-1.125 1.125 -1.125 1.125 0 0 Z " fill="#00ABF2" transform="translate(66,158)"/>
<path d="M0 0 C0.6875 1.625 0.6875 1.625 1 4 C-0.4375 7.25 -0.4375 7.25 -2 10 C-2.66 9.01 -3.32 8.02 -4 7 C-2.79618552 4.50638429 -1.54571278 2.31856917 0 0 Z " fill="#D0E0E5" transform="translate(16,72)"/>
<path d="M0 0 C2 1 2 1 2.875 3.375 C4.13500471 6.31501099 5.33889875 7.31463588 8 9 C6.68 9.33 5.36 9.66 4 10 C0 3.375 0 3.375 0 0 Z " fill="#124986" transform="translate(64,169)"/>
<path d="M0 0 C1.32 0.33 2.64 0.66 4 1 C4.33 2.32 4.66 3.64 5 5 C3.68 4.67 2.36 4.34 1 4 C0.67 2.68 0.34 1.36 0 0 Z " fill="#B8F1F7" transform="translate(94,152)"/>
<path d="M0 0 C0.33 0 0.66 0 1 0 C1.36923077 6.52307692 1.36923077 6.52307692 -0.5 8.9375 C-0.995 9.288125 -1.49 9.63875 -2 10 C-2.17942163 6.05272412 -2.09350689 3.4019487 0 0 Z " fill="#BCD1D8" transform="translate(171,148)"/>
<path d="M0 0 C0.33 0 0.66 0 1 0 C1 3.3 1 6.6 1 10 C0.01 10 -0.98 10 -2 10 C-1.54177532 6.53058454 -1.10868317 3.32604951 0 0 Z " fill="#D4E3E7" transform="translate(2,98)"/>
<path d="M0 0 C0.66 0 1.32 0 2 0 C2.33 1.32 2.66 2.64 3 4 C2.34 4 1.68 4 1 4 C1 5.65 1 7.3 1 9 C-0.61949011 6.42786866 -1.04408751 5.32330841 -0.625 2.25 C-0.41875 1.5075 -0.2125 0.765 0 0 Z " fill="#0D4785" transform="translate(82,80)"/>
<path d="M0 0 C1 3 1 3 0.3125 5.0625 C-1.21259665 7.31383315 -2.50584728 8.00233891 -5 9 C-3.7508258 5.54074837 -2.32472205 2.85306797 0 0 Z " fill="#2F4B76" transform="translate(110,68)"/>
<path d="M0 0 C2.52588702 2.36292656 3.88820837 3.66462511 5 7 C3.68 6.67 2.36 6.34 1 6 C0.67 4.02 0.34 2.04 0 0 Z " fill="#BFD3DB" transform="translate(9,167)"/>
<path d="M0 0 C0.99 0.33 1.98 0.66 3 1 C4.1875 4.0625 4.1875 4.0625 5 7 C4.01 7.495 4.01 7.495 3 8 C0 2.25 0 2.25 0 0 Z " fill="#C0D5DB" transform="translate(161,80)"/>
<path d="M0 0 C1.65 1.65 3.3 3.3 5 5 C4.67 5.66 4.34 6.32 4 7 C2.68 6.34 1.36 5.68 0 5 C0 3.35 0 1.7 0 0 Z " fill="#CFE0E4" transform="translate(153,66)"/>
</svg>
