<?xml version="1.0" standalone="no"?>
<!DOCTYPE svg PUBLIC "-//W3C//DTD SVG 20010904//EN"
 "http://www.w3.org/TR/2001/REC-SVG-20010904/DTD/svg10.dtd">
<svg version="1.0" xmlns="http://www.w3.org/2000/svg"
 width="175.000000pt" height="219.000000pt" viewBox="0 0 175.000000 219.000000"
 preserveAspectRatio="xMidYMid meet">
<metadata>
Created by potrace 1.16, written by Peter Selinger 2001-2019
</metadata>
<g transform="translate(0.000000,219.000000) scale(0.100000,-0.100000)"
fill="#000000" stroke="none">
<path d="M1 1608 c1 -513 2 -575 14 -518 53 256 198 457 466 645 175 123 299
254 361 384 l30 64 33 -69 c60 -130 163 -240 340 -364 272 -192 408 -375 472
-638 25 -101 22 -313 -6 -417 -27 -101 -95 -242 -155 -322 -176 -232 -493
-368 -778 -333 -386 46 -704 356 -771 750 -2 14 -5 -158 -6 -382 l-1 -408 875
0 875 0 0 1095 0 1095 -875 0 -875 0 1 -582z"/>
<path d="M850 1940 c-30 -58 -116 -143 -214 -210 l-80 -55 45 -5 c57 -7 91
-31 128 -89 57 -88 95 -235 107 -415 6 -89 8 -93 28 -88 28 7 36 20 36 61 0
67 32 248 56 321 46 138 112 210 194 210 l44 0 -84 58 c-105 71 -189 154 -217
212 l-20 44 -23 -44z"/>
<path d="M1204 1586 c-124 -84 -181 -183 -172 -300 6 -76 28 -119 113 -226 92
-116 109 -151 109 -230 0 -75 -30 -144 -86 -198 -29 -27 -33 -37 -30 -68 3
-28 8 -34 21 -29 31 13 231 17 231 4 0 -7 17 -10 53 -6 28 2 62 0 75 -4 22 -8
26 -4 56 64 53 113 70 195 69 327 -1 179 -53 338 -158 485 -46 65 -151 168
-202 197 -29 17 -30 17 -79 -16z"/>
<path d="M397 1551 c-129 -102 -230 -258 -279 -429 -18 -61 -23 -102 -22 -197
0 -133 15 -208 65 -315 l30 -65 59 3 c38 3 59 8 57 15 -4 20 189 21 231 1 29
-13 36 -14 43 -3 15 24 10 40 -30 86 -73 83 -90 197 -43 294 12 24 53 82 92
129 41 50 79 107 90 138 34 91 23 187 -31 268 -29 42 -145 134 -170 134 -10 0
-51 -26 -92 -59z"/>
<path d="M1010 513 c-8 -3 -36 -21 -61 -39 -26 -19 -63 -41 -83 -49 -47 -20
-127 -19 -152 1 -18 15 -18 15 3 5 12 -6 30 -11 40 -10 10 0 1 7 -21 15 -21 7
-42 11 -47 8 -5 -3 -8 -2 -7 3 2 5 -7 21 -19 37 -28 34 -29 16 -4 -39 22 -49
77 -99 126 -115 62 -20 156 -9 205 25 44 30 88 95 92 135 3 21 -1 25 -27 27
-16 1 -37 -1 -45 -4z"/>
</g>
</svg>
