<svg xmlns="http://www.w3.org/2000/svg" viewBox="0 0 100 110" fill="none">
  <defs>
    <linearGradient id="dropGrad" x1="0" y1="0" x2="1" y2="1">
      <stop offset="0%" stop-color="#0B2240"/>
      <stop offset="50%" stop-color="#1565C0"/>
      <stop offset="100%" stop-color="#4FC3F7"/>
    </linearGradient>
    <linearGradient id="innerGrad" x1="0" y1="0" x2="0" y2="1">
      <stop offset="0%" stop-color="#00B4D8"/>
      <stop offset="100%" stop-color="#4FC3F7"/>
    </linearGradient>
  </defs>
  <path d="M50 5 C50 5 15 45 15 65 C15 84 30.6 99 50 99 C69.4 99 85 84 85 65 C85 45 50 5 50 5Z" fill="url(#dropGrad)"/>
  <path d="M50 28 C50 28 34 52 34 64 C34 72.8 41.2 80 50 80 C58.8 80 66 72.8 66 64 C66 52 50 28 50 28Z" fill="url(#innerGrad)"/>
  <circle cx="45" cy="62" r="4" fill="white" opacity="0.7"/>
</svg>
